<svg id="Ñëîé_1" data-name="Ñëîé 1" xmlns="http://www.w3.org/2000/svg" viewBox="0 0 568.66 90.33"><defs><style>.cls-1{fill:#eed3c5;}</style></defs><title>titleHeart</title><path class="cls-1" d="M582.1,296.71c-7.25,17.55-23.58,34.11-43.66,34.11-9,0-18-4.15-25.52-8.76-4.52-2.78-8.79-6.31-14.12-7.38-6.56-1.31-13.31,1.84-19,4.7-5,2.53-9.74,5.47-15,7.57a73.06,73.06,0,0,1-15.93,4.19c-10.73,1.64-22.6.89-32.83-2.86a31.29,31.29,0,0,1-11.39-7.7c-2.48-2.51-5.12-5.05-8.47-6.36-6.46-2.52-12-.36-17.79,2.9-7.11,4-13.47,9.29-20.2,13.89a67.21,67.21,0,0,1-38.29,11.5,40.14,40.14,0,0,1-24.11-8.72,49.33,49.33,0,0,0,9.26-4.46A53.52,53.52,0,0,0,323,311.21c3.83-6.33,8.25-16.13,5-23.53-2.38-5.35-7.88-7.77-13.53-7.51a17.89,17.89,0,0,0-13.26,7.26,14.5,14.5,0,0,0-6-8.76c1.09-7.62.18-15.32-5.41-20.21-5.08-4.44-12.8-4.62-18.56-1.52-4.66,2.5-7.54,7.37-9.07,12.41-3.6-8.94-13.94-15.55-23.51-14.16A15.28,15.28,0,0,0,226.41,265c-2.86,7.3-1.4,15.15,1.25,22.28,5.74,15.5,17.59,28.17,30.63,37.91.87.66,1.77,1.3,2.68,1.91a82.32,82.32,0,0,1-45.8,15.86,95.14,95.14,0,0,1-17.68-1.23c-6-.94-12.7-2.19-18.09-5-8.37-4.34-15.79-10.28-24.74-13.49-13.35-4.81-25.65,4.9-37.16,10.34a41.62,41.62,0,0,1-23.84,3.78c-6.84-.94-12.79-4.3-18.26-8.34-9.32-6.9-18.94-18.54-31.26-19.77C31.62,308,22.51,319.84,15.88,328.73,15,329.88,17,331,17.8,329.85c5.25-7.05,11.61-15.45,20.46-18,6.92-2,13.74,1.95,19.23,5.74,7.19,5,13.38,11.26,20.7,16.06A39.29,39.29,0,0,0,99.73,340c9,.09,16.9-3.31,24.69-7.42,8-4.25,17-10,26.5-8.1,9.67,2,18,8.93,26.41,13.66,9,5,20.79,6.38,30.92,6.94,19.68,1.1,39-5.24,54.66-16.74a46.2,46.2,0,0,0,20.21,7.22,29,29,0,0,0,10-.92A43.6,43.6,0,0,0,314,344.2c12.12,1.93,25.43-1.13,36.49-6.15,7-3.16,13.09-8.16,19.29-12.6,5.78-4.15,12.66-9.66,20-10.29,8.47-.72,13.68,8.57,20,12.56,8.06,5.07,18.54,6.18,27.86,6.35a74.35,74.35,0,0,0,30-5.95c8.73-3.66,16.57-10.25,26.22-11.4,6.9-.83,12.36,3.82,17.83,7.26,8.2,5.14,17.91,9.06,27.69,9.06,20.58,0,37.43-18,44.75-35.74C584.79,296,582.64,295.41,582.1,296.71Zm-282.82-6.06a1.12,1.12,0,0,0,2.07.56A16.12,16.12,0,0,1,317,282.43c7.2.55,10.59,6.94,9.58,13.57-2.51,16.44-17.17,31.25-32.79,36.13a61.84,61.84,0,0,1-13-16.22c-.53-.93-1.09-1.94-1.67-3a83.24,83.24,0,0,0,11-17.62,65.14,65.14,0,0,0,4.67-14.14A12.37,12.37,0,0,1,299.28,290.65ZM278,310.79c-4.67-9.21-9.15-21.92-1.63-29.62,4.46-4.56,11.2-4.47,16.23-1.55C290.88,291,285.25,301.7,278,310.79Zm-36.15-4c-9.1-10.68-22.36-33.26-10.08-46,9.92-10.28,27.75,1.85,29.37,13.43a1.12,1.12,0,0,0,2.15,0c1.4-8.87,6.8-17.26,16.65-17.17,10.23.08,13.56,9.57,13.1,18.16,0,.71-.1,1.42-.16,2.13-7-3.39-16.29-2.2-20.58,5.64-5,9.1-.44,20.65,4.18,29.64a95,95,0,0,1-8.29,8.58c-1.76,1.61-3.6,3.14-5.48,4.59C254.51,320.47,247.28,313.22,241.8,306.79ZM264.62,327a87.39,87.39,0,0,0,12.92-12.3q.65,1.2,1.26,2.31a61.33,61.33,0,0,0,12.27,15.82C281.94,334.82,272.86,332,264.62,327Z" transform="translate(-15.67 -254.83)"/></svg>